<svg width="415" height="61" viewBox="0 0 415 61" fill="none" xmlns="http://www.w3.org/2000/svg">
<g clip-path="url(#clip0_3_12)">
<path d="M35.7059 5.3156C35.7059 2.6951 33.5632 0.563599 30.9307 0.563599C28.2982 0.563599 26.1554 2.6951 26.1554 5.3156C26.1554 7.9361 28.2982 10.0683 30.9307 10.0683C33.5632 10.0683 35.7059 7.93685 35.7059 5.3156ZM27.6554 5.3156C27.6554 3.5231 29.1254 2.0636 30.9307 2.0636C32.7359 2.0636 34.2059 3.52235 34.2059 5.3156C34.2059 7.10885 32.7359 8.56835 30.9307 8.56835C29.1254 8.56835 27.6554 7.1096 27.6554 5.3156ZM13.0552 17.4746H13.0687C13.6951 17.4742 14.3153 17.35 14.8936 17.1092C15.4718 16.8684 15.9969 16.5157 16.4384 16.0713C16.8826 15.6297 17.2352 15.1047 17.4759 14.5264C17.7166 13.9481 17.8406 13.328 17.8409 12.7016C17.8449 12.0763 17.7243 11.4566 17.4862 10.8784C17.2481 10.3002 16.8973 9.77526 16.4542 9.3341C16.0138 8.88984 15.489 8.53821 14.9107 8.29991C14.3323 8.06162 13.7122 7.94149 13.0867 7.9466C11.8154 7.9511 10.6192 8.4491 9.71766 9.3506C8.81616 10.2521 8.31816 11.4483 8.31441 12.7196C8.31057 13.3449 8.43127 13.9647 8.66949 14.5429C8.90771 15.1211 9.25868 15.646 9.70191 16.0871C10.1413 16.5286 10.664 16.8786 11.2395 17.1168C11.8151 17.3549 12.4322 17.4766 13.0552 17.4746ZM10.7782 10.4111C11.0814 10.1063 11.4418 9.86426 11.8387 9.69888C12.2356 9.53351 12.6612 9.44803 13.0912 9.44735H13.1009C13.9679 9.44735 14.7824 9.78335 15.3937 10.3953C15.6964 10.6972 15.9361 11.0561 16.0988 11.4514C16.2616 11.8467 16.3441 12.2704 16.3417 12.6978C16.3394 13.5701 15.9967 14.3913 15.3779 15.0108C14.7592 15.6303 13.9372 15.9723 13.0649 15.9746H13.0552C12.6293 15.9758 12.2075 15.8926 11.814 15.7299C11.4205 15.5672 11.0631 15.3282 10.7624 15.0266C10.4597 14.7248 10.22 14.3658 10.0572 13.9705C9.89449 13.5753 9.81195 13.1516 9.81441 12.7241C9.8151 12.2941 9.90058 11.8685 10.0659 11.4716C10.2313 11.0747 10.4733 10.7143 10.7782 10.4111ZM5.68266 35.3388C8.30391 35.3388 10.4354 33.1968 10.4354 30.5636C10.4354 27.9303 8.30391 25.7883 5.68266 25.7883C3.06141 25.7883 0.930664 27.9311 0.930664 30.5636C0.930664 33.1961 3.06216 35.3388 5.68266 35.3388ZM5.68266 27.2883C7.47666 27.2883 8.93541 28.7583 8.93541 30.5636C8.93541 32.3688 7.47666 33.8388 5.68266 33.8388C3.89016 33.8388 2.43066 32.3688 2.43066 30.5636C2.43066 28.7583 3.88941 27.2883 5.68266 27.2883ZM13.0867 53.1798H13.1017C14.3692 53.1798 15.5594 52.6878 16.4542 51.7923C16.8974 51.3513 17.2484 50.8263 17.4866 50.2481C17.7248 49.67 17.8455 49.0502 17.8417 48.4249C17.8412 47.7985 17.7169 47.1785 17.4761 46.6004C17.2353 46.0222 16.8827 45.4973 16.4384 45.0558C15.9968 44.6116 15.4718 44.2591 14.8935 44.0184C14.3152 43.7777 13.695 43.6537 13.0687 43.6534H13.0552C11.7877 43.6534 10.5967 44.1446 9.70191 45.0401C9.25868 45.4812 8.90771 46.0061 8.66949 46.5843C8.43127 47.1625 8.31057 47.7823 8.31441 48.4076C8.31816 49.6788 8.81691 50.8751 9.71691 51.7766C10.6169 52.6781 11.8154 53.1761 13.0867 53.1798ZM10.7617 46.0998C11.0625 45.7983 11.42 45.5594 11.8137 45.3968C12.2073 45.2342 12.6293 45.1512 13.0552 45.1526H13.0649C13.9372 45.1549 14.7584 45.4976 15.3779 46.1163C15.9974 46.7351 16.3394 47.5571 16.3417 48.4293C16.3441 48.8568 16.2616 49.2805 16.0988 49.6758C15.9361 50.0711 15.6964 50.43 15.3937 50.7318C15.093 51.0334 14.7356 51.2724 14.3421 51.4352C13.9486 51.5979 13.5267 51.681 13.1009 51.6798H13.0912C12.6612 51.6792 12.2356 51.5937 11.8387 51.4283C11.4418 51.2629 11.0814 51.0209 10.7782 50.7161C10.4733 50.4129 10.2313 50.0525 10.0659 49.6556C9.90058 49.2587 9.8151 48.8331 9.81441 48.4031C9.81195 47.9756 9.89449 47.5519 10.0572 47.1567C10.22 46.7614 10.4597 46.4024 10.7624 46.1006M26.1554 55.8116C26.1554 58.4321 28.2982 60.5636 30.9307 60.5636C33.5632 60.5636 35.7059 58.4321 35.7059 55.8116C35.7059 53.1911 33.5632 51.0589 30.9307 51.0589C28.2982 51.0589 26.1554 53.1903 26.1554 55.8116ZM34.2059 55.8116C34.2059 57.6041 32.7359 59.0636 30.9307 59.0636C29.1254 59.0636 27.6554 57.6048 27.6554 55.8116C27.6554 54.0183 29.1254 52.5589 30.9307 52.5589C32.7359 52.5589 34.2059 54.0176 34.2059 55.8116ZM48.7604 53.1798H48.7747C50.0459 53.1761 51.2422 52.6774 52.1437 51.7774C53.0452 50.8774 53.5432 49.6788 53.5469 48.4076C53.5508 47.7823 53.4301 47.1625 53.1918 46.5843C52.9536 46.0061 52.6027 45.4812 52.1594 45.0401C51.72 44.5986 51.1974 44.2486 50.6218 44.0104C50.0462 43.7723 49.4291 43.6506 48.8062 43.6526H48.7927C48.1662 43.653 47.5461 43.7772 46.9678 44.018C46.3895 44.2588 45.8645 44.6115 45.4229 45.0558C44.9787 45.4975 44.6261 46.0225 44.3855 46.6008C44.1448 47.1791 44.0207 47.7992 44.0204 48.4256C44.0165 49.0509 44.1371 49.6706 44.3751 50.2488C44.6132 50.827 44.9641 51.3519 45.4072 51.7931C45.8465 52.2345 46.369 52.5845 46.9445 52.8226C47.5199 53.0608 48.1369 53.1825 48.7597 53.1806M46.4827 46.1171C46.7857 45.8119 47.146 45.5697 47.5429 45.4043C47.9399 45.2389 48.3656 45.1536 48.7957 45.1534H48.8054C49.6724 45.1534 50.4869 45.4894 51.0982 46.1014C51.4009 46.4032 51.6406 46.7621 51.8033 47.1574C51.9661 47.5527 52.0486 47.9764 52.0462 48.4039C52.0455 48.8338 51.96 49.2594 51.7946 49.6563C51.6293 50.0532 51.3872 50.4136 51.0824 50.7169C50.7792 51.0217 50.4188 51.2637 50.0219 51.4291C49.625 51.5944 49.1994 51.6799 48.7694 51.6806H48.7597C48.3338 51.6818 47.912 51.5986 47.5185 51.4359C47.125 51.2732 46.7676 51.0342 46.4669 50.7326C46.1642 50.4308 45.9245 50.0718 45.7617 49.6765C45.599 49.2813 45.5164 48.8576 45.5189 48.4301C45.5192 48.0001 45.6045 47.5743 45.7699 47.1774C45.9353 46.7804 46.1775 46.4201 46.4827 46.1171ZM51.4259 30.5636C51.4259 33.1961 53.5574 35.3388 56.1787 35.3388C58.7999 35.3388 60.9307 33.1961 60.9307 30.5636C60.9307 27.9311 58.7992 25.7883 56.1787 25.7883C53.5582 25.7883 51.4259 27.9311 51.4259 30.5636ZM56.1787 27.2883C57.9712 27.2883 59.4307 28.7583 59.4307 30.5636C59.4307 32.3688 57.9719 33.8388 56.1787 33.8388C54.3854 33.8388 52.9259 32.3688 52.9259 30.5636C52.9259 28.7583 54.3847 27.2883 56.1787 27.2883ZM48.7747 7.94735H48.7597C47.4922 7.94735 46.3019 8.43935 45.4072 9.33485C44.9639 9.77595 44.613 10.3009 44.3747 10.8791C44.1365 11.4572 44.0158 12.077 44.0197 12.7023C44.0202 13.3286 44.1444 13.9487 44.3852 14.5268C44.626 15.105 44.9787 15.6299 45.4229 16.0713C45.8645 16.5155 46.3896 16.8681 46.9679 17.1088C47.5461 17.3495 48.1663 17.4735 48.7927 17.4738H48.8062C50.0737 17.4738 51.2647 16.9826 52.1594 16.0871C52.6027 15.646 52.9536 15.1211 53.1918 14.5429C53.4301 13.9647 53.5508 13.3449 53.5469 12.7196C53.5432 11.4483 53.0444 10.2521 52.1444 9.3506C51.2444 8.4491 50.0459 7.9511 48.7747 7.94735ZM51.0997 15.0273C50.7988 15.3313 50.44 15.5718 50.0445 15.7345C49.649 15.8972 49.2248 15.9788 48.7972 15.9746C47.9242 15.9723 47.1029 15.6296 46.4834 15.0108C45.8639 14.3921 45.5219 13.5701 45.5197 12.6978C45.5172 12.2704 45.5997 11.8467 45.7625 11.4514C45.9252 11.0561 46.1649 10.6972 46.4677 10.3953C46.7683 10.0938 47.1257 9.85476 47.5192 9.69205C47.9127 9.52934 48.3346 9.44617 48.7604 9.44735H48.7702C49.2001 9.44803 49.6257 9.53351 50.0226 9.69888C50.4195 9.86426 50.7799 10.1063 51.0832 10.4111C51.388 10.7143 51.63 11.0747 51.7954 11.4716C51.9608 11.8685 52.0462 12.2941 52.0469 12.7241C52.0494 13.1516 51.9668 13.5753 51.8041 13.9705C51.6413 14.3658 51.4016 14.7248 51.0989 15.0266M38.3579 5.6426C38.1678 5.58756 37.9635 5.60993 37.7898 5.70485C37.6161 5.79976 37.4869 5.95951 37.4305 6.14927C37.3741 6.33903 37.395 6.5434 37.4886 6.71781C37.5823 6.89223 37.7411 7.02255 37.9304 7.08035C39.6404 7.5898 41.2893 8.28547 42.8474 9.15485C42.9335 9.20459 43.0286 9.23671 43.1272 9.24936C43.2258 9.26201 43.326 9.25493 43.4218 9.22853C43.5177 9.20213 43.6073 9.15693 43.6855 9.09558C43.7637 9.03422 43.829 8.95792 43.8775 8.87112C43.9259 8.78432 43.9567 8.68875 43.9679 8.58997C43.9791 8.49119 43.9705 8.39116 43.9427 8.29571C43.9149 8.20026 43.8684 8.11129 43.8059 8.03398C43.7434 7.95666 43.6662 7.89254 43.5787 7.84535C41.9245 6.92224 40.1733 6.18356 38.3579 5.6426ZM18.9854 9.0716C19.1054 9.0716 19.2277 9.0431 19.3417 8.9816C20.9109 8.13331 22.5683 7.45929 24.2842 6.9716C24.3804 6.94612 24.4707 6.90173 24.5496 6.841C24.6285 6.78028 24.6946 6.70445 24.7439 6.61793C24.7932 6.53141 24.8248 6.43594 24.8368 6.33708C24.8488 6.23823 24.841 6.13797 24.8139 6.04215C24.7868 5.94634 24.7408 5.85689 24.6787 5.77902C24.6166 5.70116 24.5397 5.63643 24.4523 5.58863C24.365 5.54082 24.269 5.51089 24.1699 5.50059C24.0709 5.49028 23.9707 5.4998 23.8754 5.5286C22.0533 6.04564 20.2935 6.76118 18.6277 7.66235C18.4806 7.7417 18.3643 7.86788 18.2972 8.02085C18.23 8.17383 18.2158 8.34486 18.2569 8.5068C18.298 8.66874 18.392 8.81232 18.524 8.91478C18.6559 9.01723 18.8183 9.07194 18.9854 9.0716ZM6.60816 23.9748C6.70257 24.003 6.80159 24.0122 6.89957 24.0021C6.99755 23.992 7.09258 23.9626 7.17922 23.9157C7.26586 23.8689 7.34242 23.8054 7.40452 23.7289C7.46662 23.6525 7.51305 23.5645 7.54116 23.4701C8.05062 21.7601 8.74628 20.1112 9.61566 18.5531C9.66363 18.4671 9.69418 18.3724 9.70557 18.2746C9.71696 18.1768 9.70897 18.0776 9.68205 17.9829C9.65514 17.8881 9.60982 17.7996 9.54869 17.7224C9.48756 17.6451 9.41182 17.5807 9.32579 17.5327C9.23976 17.4848 9.14512 17.4542 9.04728 17.4428C8.94944 17.4314 8.85032 17.4394 8.75557 17.4663C8.66082 17.4933 8.57229 17.5386 8.49506 17.5997C8.41782 17.6608 8.35338 17.7366 8.30541 17.8226C7.38256 19.4768 6.64414 21.2272 6.10341 23.0426C6.04683 23.2332 6.06821 23.4384 6.16285 23.6132C6.2575 23.788 6.41766 23.9181 6.60816 23.9748ZM9.44241 42.0589C8.59412 40.4896 7.92011 38.8322 7.43241 37.1163C7.40558 37.0216 7.36034 36.9331 7.29928 36.8558C7.23823 36.7785 7.16255 36.7141 7.07658 36.666C6.9906 36.618 6.89601 36.5874 6.7982 36.5759C6.7004 36.5645 6.60129 36.5724 6.50654 36.5992C6.41179 36.6261 6.32326 36.6713 6.24599 36.7324C6.16872 36.7934 6.10424 36.8691 6.05622 36.9551C6.0082 37.041 5.97759 37.1356 5.96612 37.2334C5.95466 37.3312 5.96258 37.4304 5.98941 37.5251C6.50646 39.3472 7.22199 41.107 8.12316 42.7728C8.17005 42.8595 8.23353 42.936 8.30999 42.9981C8.38646 43.0602 8.4744 43.1066 8.5688 43.1347C8.6632 43.1628 8.76222 43.172 8.86019 43.1619C8.95816 43.1517 9.05317 43.1224 9.13979 43.0755C9.22641 43.0286 9.30295 42.9651 9.36504 42.8886C9.42713 42.8122 9.47355 42.7242 9.50165 42.6298C9.52975 42.5354 9.53898 42.4364 9.52882 42.3385C9.51866 42.2405 9.4893 42.1455 9.44241 42.0589ZM19.0139 51.7848C18.9278 51.7351 18.8327 51.703 18.7341 51.6903C18.6355 51.6777 18.5354 51.6848 18.4395 51.7112C18.3437 51.7376 18.254 51.7828 18.1758 51.8441C18.0976 51.9055 18.0323 51.9818 17.9839 52.0686C17.9354 52.1554 17.9047 52.2509 17.8935 52.3497C17.8823 52.4485 17.8908 52.5485 17.9186 52.644C17.9464 52.7394 17.9929 52.8284 18.0554 52.9057C18.1179 52.983 18.1952 53.0472 18.2827 53.0943C19.9368 54.0175 21.6873 54.7561 23.5027 55.2971C23.5971 55.3252 23.6961 55.3345 23.7941 55.3243C23.892 55.3142 23.9871 55.2848 24.0737 55.238C24.1603 55.1911 24.2369 55.1276 24.299 55.0512C24.3611 54.9747 24.4075 54.8868 24.4357 54.7923C24.4638 54.6979 24.473 54.5989 24.4629 54.5009C24.4527 54.403 24.4234 54.3079 24.3765 54.2213C24.3297 54.1347 24.2662 54.0581 24.1897 53.996C24.1133 53.9339 24.0253 53.8875 23.9309 53.8593C22.2209 53.3499 20.572 52.6542 19.0139 51.7848ZM42.5197 51.9581C40.9504 52.8064 39.2931 53.4804 37.5772 53.9681C37.4809 53.9936 37.3907 54.038 37.3117 54.0987C37.2328 54.1594 37.1668 54.2352 37.1174 54.3218C37.0681 54.4083 37.0365 54.5038 37.0245 54.6026C37.0125 54.7015 37.0203 54.8017 37.0474 54.8975C37.0746 54.9934 37.1205 55.0828 37.1826 55.1607C37.2447 55.2385 37.3217 55.3033 37.409 55.3511C37.4964 55.3989 37.5924 55.4288 37.6914 55.4391C37.7905 55.4494 37.8906 55.4399 37.9859 55.4111C39.808 54.8941 41.5678 54.1785 43.2337 53.2774C43.4086 53.1827 43.5388 53.0224 43.5955 52.8317C43.6523 52.6411 43.631 52.4357 43.5363 52.2607C43.4416 52.0858 43.2813 51.9556 43.0907 51.8989C42.9 51.8421 42.6946 51.8634 42.5197 51.9581ZM55.7579 37.8971C55.7868 37.8025 55.7967 37.703 55.787 37.6046C55.7773 37.5061 55.7482 37.4105 55.7014 37.3233C55.6546 37.2362 55.591 37.1591 55.5142 37.0966C55.4375 37.0341 55.3492 36.9874 55.2543 36.9592C55.1595 36.931 55.06 36.9219 54.9616 36.9323C54.8632 36.9427 54.7678 36.9725 54.681 37.0199C54.5942 37.0674 54.5176 37.1315 54.4557 37.2087C54.3937 37.2859 54.3477 37.3746 54.3202 37.4696C53.8107 39.1796 53.115 40.8285 52.2457 42.3866C52.1977 42.4726 52.1671 42.5673 52.1558 42.6651C52.1444 42.7629 52.1524 42.8621 52.1793 42.9568C52.2062 43.0516 52.2515 43.1401 52.3126 43.2173C52.3738 43.2946 52.4495 43.359 52.5355 43.407C52.6216 43.4549 52.7162 43.4855 52.814 43.4969C52.9119 43.5083 53.011 43.5003 53.1058 43.4734C53.2005 43.4464 53.289 43.4011 53.3663 43.34C53.4435 43.2789 53.5079 43.2031 53.5559 43.1171C54.4788 41.4629 55.2172 39.7125 55.7579 37.8971ZM52.7219 17.8638C52.6352 17.9107 52.5586 17.9742 52.4964 18.0506C52.4343 18.1271 52.3878 18.2151 52.3596 18.3096C52.3315 18.404 52.3222 18.5031 52.3324 18.6011C52.3426 18.6991 52.372 18.7942 52.4189 18.8808C53.2672 20.4501 53.9412 22.1075 54.4289 23.8233C54.4544 23.9196 54.4988 24.0099 54.5595 24.0888C54.6202 24.1677 54.6961 24.2338 54.7826 24.2831C54.8691 24.3324 54.9646 24.364 55.0634 24.376C55.1623 24.388 55.2625 24.3802 55.3584 24.3531C55.4542 24.3259 55.5436 24.28 55.6215 24.2179C55.6994 24.1558 55.7641 24.0789 55.8119 23.9915C55.8597 23.9041 55.8896 23.8081 55.8999 23.7091C55.9102 23.61 55.9007 23.5099 55.8719 23.4146C55.3549 21.5925 54.6393 19.8327 53.7382 18.1668C53.6436 17.9919 53.4833 17.8618 53.2928 17.8049C53.1022 17.7481 52.8969 17.7693 52.7219 17.8638ZM44.1577 27.0146C44.1191 26.8955 44.0513 26.7879 43.9606 26.7017C43.8698 26.6155 43.7589 26.5534 43.6379 26.5211L35.9129 24.4601L31.5592 17.7783C31.2817 17.3538 30.5789 17.3538 30.3022 17.7783L25.9477 24.4601L18.2234 26.5211C18.1025 26.5534 17.9915 26.6154 17.9007 26.7016C17.8099 26.7877 17.7421 26.8952 17.7034 27.0143C17.6648 27.1334 17.6566 27.2602 17.6796 27.3833C17.7025 27.5064 17.7559 27.6217 17.8349 27.7188L22.8667 33.9086L22.4474 41.8624C22.4408 41.9872 22.4654 42.1116 22.5192 42.2245C22.5729 42.3373 22.6539 42.435 22.755 42.5085C22.856 42.5821 22.9739 42.6292 23.0978 42.6456C23.2217 42.6621 23.3477 42.6473 23.4644 42.6026L30.9307 39.7466L38.3969 42.6026C38.5136 42.6471 38.6395 42.6617 38.7633 42.6452C38.887 42.6287 39.0047 42.5816 39.1057 42.5081C39.2066 42.4346 39.2876 42.337 39.3413 42.2242C39.395 42.1115 39.4197 41.9871 39.4132 41.8624L38.9947 33.9086L44.0264 27.7188C44.1054 27.6216 44.1588 27.5062 44.1818 27.3831C44.2047 27.2599 44.1964 27.133 44.1577 27.0138M37.6484 33.1863C37.5311 33.3305 37.4715 33.513 37.4812 33.6986L37.8547 40.7883L31.1984 38.2421C31.026 38.1762 30.8353 38.1762 30.6629 38.2421L24.0067 40.7883L24.3802 33.6986C24.39 33.5128 24.3304 33.3299 24.2129 33.1856L19.7294 27.6708L26.6129 25.8341C26.7918 25.7864 26.9468 25.6742 27.0479 25.5191L30.9307 19.5611L34.8134 25.5191C34.9146 25.6742 35.0695 25.7864 35.2484 25.8341L42.1319 27.6708L37.6484 33.1863Z" fill="#0023FF"/>
<path d="M71.7449 15.795C71.7449 13.6106 71.1149 11.8398 70.3378 11.8398C69.5606 11.8398 68.9307 13.6106 68.9307 15.795V45.3322C68.9307 47.5166 69.5606 49.2874 70.3378 49.2874C71.1149 49.2874 71.7449 47.5166 71.7449 45.3322V15.795Z" fill="#010C80"/>
<g clip-path="url(#clip1_3_12)">
<g clip-path="url(#clip2_3_12)">
<g clip-path="url(#clip3_3_12)">
<g clip-path="url(#clip4_3_12)">
<path d="M90.9377 35.5952H82.3054V32.3475H90.8436C92.8958 32.3475 94.3862 31.836 95.3151 30.8131C96.2439 29.7839 96.7083 28.3655 96.7083 26.5581V24.5153C96.7083 22.6765 96.247 21.2551 95.3245 20.2509C94.4082 19.2468 92.9303 18.7447 90.8906 18.7447H82.2771V15.5253H90.9659C94.3235 15.5253 96.7648 16.3129 98.2898 17.8881C99.8211 19.4633 100.587 21.6316 100.587 24.393V26.6522C100.587 29.445 99.8148 31.6352 98.271 33.223C96.7271 34.8045 94.2827 35.5952 90.9377 35.5952ZM83.6233 45.602H79.7637V15.5253H83.595V33.3171L83.6233 35.0587V45.602ZM127.698 45.602H123.669L122.822 39.436C122.665 38.275 122.398 37.2677 122.022 36.4142C121.645 35.5544 121.071 34.8829 120.299 34.3997C119.521 33.9102 118.416 33.6654 116.985 33.6654L108.824 33.6466V30.5589L117.55 30.5401C119.609 30.5401 121.077 30.0349 121.956 29.0245C122.834 28.0078 123.274 26.6303 123.274 24.8919V24.1859C123.274 22.46 122.825 21.1233 121.928 20.1756C121.036 19.2217 119.546 18.7447 117.456 18.7447H108.701V15.5253H117.974C121.206 15.5253 123.556 16.2344 125.025 17.6528C126.493 19.0711 127.227 21.0291 127.227 23.5269V24.3271C127.227 26.2851 126.763 27.8886 125.834 29.1374C124.912 30.3863 123.374 31.1426 121.222 31.4061V31.8768L119.555 31.2932C121.294 31.4187 122.64 31.7984 123.594 32.4322C124.541 33.0661 125.235 33.9321 125.674 35.0304C126.113 36.135 126.449 37.4529 126.681 38.9842L127.698 45.602ZM110 45.602H106.141V15.5253H109.972V31.5944L110 33.0818V45.602ZM143.748 46.1668C139.952 46.1668 137.065 45.1187 135.088 43.0226C133.111 40.9265 132.123 37.9267 132.123 34.0231V27.0759C132.123 23.1849 133.111 20.1945 135.088 18.1046C137.065 16.0085 139.952 14.9604 143.748 14.9604C147.545 14.9604 150.432 16.0085 152.409 18.1046C154.38 20.1945 155.365 23.1849 155.365 27.0759V34.0231C155.365 37.9267 154.38 40.9265 152.409 43.0226C150.432 45.1187 147.545 46.1668 143.748 46.1668ZM143.748 42.8908C146.29 42.8908 148.201 42.1346 149.481 40.6221C150.774 39.1097 151.421 36.9634 151.421 34.1832V26.9158C151.421 24.1356 150.774 21.9925 149.481 20.4863C148.201 18.9801 146.29 18.227 143.748 18.227C141.219 18.227 139.311 18.9801 138.025 20.4863C136.738 21.9925 136.095 24.1356 136.095 26.9158V34.1832C136.095 36.9634 136.738 39.1097 138.025 40.6221C139.311 42.1346 141.219 42.8908 143.748 42.8908ZM165.183 45.9785C164.16 45.9785 163.163 45.8938 162.19 45.7244C161.217 45.5486 160.338 45.3039 159.554 44.9901L159.272 41.4788C160.087 41.8553 160.925 42.1346 161.785 42.3166C162.639 42.4986 163.511 42.5896 164.402 42.5896C166.504 42.5896 167.957 42.1032 168.761 41.1305C169.558 40.1577 169.956 38.6766 169.956 36.6872V15.5253H173.863V36.9226C173.863 39.8847 173.204 42.1346 171.886 43.6722C170.568 45.2097 168.334 45.9785 165.183 45.9785ZM184.641 45.602H180.782V15.5253H184.641V45.602ZM199.534 45.602H181.93V42.326H199.534V45.602ZM199.044 31.8768H182.994V28.6291H199.044V31.8768ZM199.402 18.7918H181.911V15.5253H199.402V18.7918ZM215.443 46.148C211.728 46.148 208.941 45.103 207.084 43.0132C205.22 40.9234 204.288 37.9581 204.288 34.1173V26.9817C204.288 23.1409 205.213 20.1819 207.065 18.1046C208.916 16.0273 211.693 14.9887 215.396 14.9887C216.588 14.9887 217.677 15.0954 218.662 15.3088C219.642 15.5284 220.514 15.8108 221.279 16.156C222.051 16.5012 222.704 16.862 223.238 17.2386L223.567 20.8628C222.638 20.2039 221.552 19.6296 220.31 19.1401C219.061 18.6443 217.596 18.3964 215.914 18.3964C213.391 18.3964 211.486 19.1464 210.2 20.6463C208.913 22.1399 208.27 24.2674 208.27 27.0288V33.9761C208.27 36.7186 208.919 38.8492 210.218 40.368C211.524 41.8804 213.469 42.6367 216.055 42.6367C217.718 42.6367 219.19 42.3919 220.47 41.9024C221.75 41.4192 222.861 40.823 223.802 40.1138L223.473 43.8322C222.939 44.2087 222.28 44.579 221.496 44.943C220.712 45.3007 219.811 45.5926 218.794 45.8185C217.784 46.0381 216.667 46.148 215.443 46.148ZM240.182 45.602H236.266V16.156H240.182V45.602ZM249.191 18.7918H227.257V15.5253H249.191V18.7918ZM273.855 35.5952H265.213V32.3475H273.761C275.813 32.3475 277.303 31.836 278.232 30.8131C279.155 29.7839 279.616 28.3655 279.616 26.5581V24.5153C279.616 22.6765 279.158 21.2551 278.242 20.2509C277.325 19.2468 275.847 18.7447 273.808 18.7447H265.194V15.5253H273.874C277.231 15.5253 279.676 16.3129 281.207 17.8881C282.738 19.4633 283.504 21.6316 283.504 24.393V26.6522C283.504 29.445 282.729 31.6352 281.179 33.223C279.635 34.8045 277.194 35.5952 273.855 35.5952ZM266.531 45.602H262.671V15.5253H266.512V33.3171L266.531 35.0587V45.602ZM299.573 46.1668C295.776 46.1668 292.889 45.1187 290.912 43.0226C288.936 40.9265 287.947 37.9267 287.947 34.0231V27.0759C287.947 23.1849 288.936 20.1945 290.912 18.1046C292.889 16.0085 295.776 14.9604 299.573 14.9604C303.37 14.9604 306.257 16.0085 308.234 18.1046C310.21 20.1945 311.199 23.1849 311.199 27.0759V34.0231C311.199 37.9267 310.21 40.9265 308.234 43.0226C306.257 45.1187 303.37 46.1668 299.573 46.1668ZM299.573 42.8908C302.115 42.8908 304.029 42.1346 305.315 40.6221C306.602 39.1097 307.245 36.9634 307.245 34.1832V26.9158C307.245 24.1356 306.602 21.9925 305.315 20.4863C304.029 18.9801 302.115 18.227 299.573 18.227C297.044 18.227 295.136 18.9801 293.85 20.4863C292.563 21.9925 291.92 24.1356 291.92 26.9158V34.1832C291.92 36.9634 292.563 39.1097 293.85 40.6221C295.136 42.1346 297.044 42.8908 299.573 42.8908ZM338.781 45.602H334.752L333.905 39.436C333.748 38.275 333.481 37.2677 333.105 36.4142C332.728 35.5544 332.151 34.8829 331.372 34.3997C330.601 33.9102 329.499 33.6654 328.068 33.6654L319.907 33.6466V30.5589L328.633 30.5401C330.692 30.5401 332.16 30.0349 333.039 29.0245C333.917 28.0078 334.357 26.6303 334.357 24.8919V24.1859C334.357 22.46 333.908 21.1233 333.01 20.1756C332.119 19.2217 330.629 18.7447 328.539 18.7447H319.784V15.5253H329.057C332.289 15.5253 334.639 16.2344 336.108 17.6528C337.576 19.0711 338.31 21.0291 338.31 23.5269V24.3271C338.31 26.2851 337.846 27.8886 336.917 29.1374C335.995 30.3863 334.457 31.1426 332.304 31.4061V31.8768L330.638 31.2932C332.377 31.4187 333.72 31.7984 334.667 32.4322C335.621 33.0661 336.318 33.9321 336.757 35.0304C337.196 36.135 337.532 37.4529 337.764 38.9842L338.781 45.602ZM321.083 45.602H317.224V15.5253H321.055V31.5944L321.083 33.0818V45.602ZM355.198 45.602H351.292V16.156H355.198V45.602ZM364.217 18.7918H342.283V15.5253H364.217V18.7918ZM370.853 45.602H366.9L376.313 15.5253H382.479L391.912 45.602H387.958L379.702 18.1611H379.109L370.853 45.602ZM386.245 36.7249H372.548V33.4772H386.245V36.7249ZM400.525 15.5253V45.602H396.619V15.5253H400.525ZM398.708 45.602V42.2789H414.571V45.602H398.708Z" fill="#010C80"/>
</g>
</g>
</g>
</g>
</g>
<defs>
<clipPath id="clip0_3_12">
<rect width="413.659" height="60" fill="white" transform="translate(0.930664 0.563599)"/>
</clipPath>
<clipPath id="clip1_3_12">
<rect width="334.844" height="31.2063" fill="white" transform="translate(79.7449 14.9604)"/>
</clipPath>
<clipPath id="clip2_3_12">
<rect width="334.844" height="31.2063" fill="white" transform="translate(79.7449 14.9604)"/>
</clipPath>
<clipPath id="clip3_3_12">
<rect width="334.844" height="31.2063" fill="white" transform="translate(79.7449 14.9604)"/>
</clipPath>
<clipPath id="clip4_3_12">
<rect width="334.844" height="31.2063" fill="white" transform="translate(79.7449 14.9604)"/>
</clipPath>
</defs>
</svg>
